<svg xmlns="http://www.w3.org/2000/svg" width="230.133" height="50" viewBox="0 0 230.133 50">
  <g id="yappa_logo_red" data-name="yappa logo red" transform="translate(-4360 -505)">
    <path id="Path_19" data-name="Path 19" d="M457.765,550.287,446.233,529.96c-.461-.818-.577-1.4-.231-1.986a1.9,1.9,0,0,1,1.845-.818h3.114a2.738,2.738,0,0,1,2.652,1.752l5.3,9.93,2.422,5.374h.115c.807-1.869,1.615-3.738,2.422-5.374l5.3-9.93a2.738,2.738,0,0,1,2.652-1.752h3.114a1.9,1.9,0,0,1,1.845.818c.346.584.231,1.168-.23,1.986L465.03,550.287v14.252a2.084,2.084,0,0,1-2.306,2.336h-2.537a2.084,2.084,0,0,1-2.306-2.336V550.287Z" transform="translate(3980.626 -11.992)" fill="#f73746"/>
    <path id="Path_20" data-name="Path 20" d="M532.82,550.871l-3.459-10.631-1.5-6.191h-.116c-.577,2.57-1.153,4.673-1.5,6.191l-3.69,10.631Zm-9.456-21.845a2.515,2.515,0,0,1,2.652-1.869h3.575a2.515,2.515,0,0,1,2.652,1.869l12.339,35.163a1.967,1.967,0,0,1-.115,1.986,2.109,2.109,0,0,1-1.845.7h-2.537a2.515,2.515,0,0,1-2.652-1.869l-2.768-8.294H520.826l-2.768,8.294a2.526,2.526,0,0,1-2.652,1.986h-2.537a2.254,2.254,0,0,1-1.845-.7,2.3,2.3,0,0,1-.116-1.986Z" transform="translate(3945.474 -11.992)" fill="#f73746"/>
    <path id="Path_21" data-name="Path 21" d="M608.644,546.9a6.139,6.139,0,0,0,4.844-1.869,7.17,7.17,0,0,0,1.729-5.023,6.686,6.686,0,0,0-1.729-4.907,6.478,6.478,0,0,0-4.728-1.869h-6.8v13.551h6.689ZM594.92,529.492a2.084,2.084,0,0,1,2.307-2.336h12.8a11.741,11.741,0,0,1,9,3.621,12.784,12.784,0,0,1,3.459,9.346,13.257,13.257,0,0,1-3.459,9.463,11.739,11.739,0,0,1-9,3.622h-8.073v11.332a2.084,2.084,0,0,1-2.306,2.336h-2.537a2.084,2.084,0,0,1-2.306-2.336V529.492Z" transform="translate(3899.978 -11.992)" fill="#f73746"/>
    <path id="Path_22" data-name="Path 22" d="M681.409,546.9a6.137,6.137,0,0,0,4.843-1.869,7.169,7.169,0,0,0,1.73-5.023,6.684,6.684,0,0,0-1.73-4.907,6.476,6.476,0,0,0-4.728-1.869h-6.8v13.551h6.689ZM667.57,529.492a2.084,2.084,0,0,1,2.307-2.336h12.8a11.739,11.739,0,0,1,8.995,3.621,12.784,12.784,0,0,1,3.46,9.346,13.257,13.257,0,0,1-3.46,9.463,11.737,11.737,0,0,1-8.995,3.622h-8.073v11.332a2.084,2.084,0,0,1-2.307,2.336h-2.537a2.084,2.084,0,0,1-2.307-2.336V529.492Z" transform="translate(3860.656 -11.992)" fill="#f73746"/>
    <path id="Path_23" data-name="Path 23" d="M750.516,550.871l-3.459-10.631-1.5-6.191h-.115c-.577,2.57-1.153,4.673-1.5,6.191l-3.575,10.631Zm-9.456-21.845a2.516,2.516,0,0,1,2.653-1.869h3.575a2.515,2.515,0,0,1,2.652,1.869l12.339,35.163a1.965,1.965,0,0,1-.115,1.986,2.109,2.109,0,0,1-1.845.7h-2.537a2.515,2.515,0,0,1-2.652-1.869l-2.768-8.294H738.523l-2.768,8.294a2.526,2.526,0,0,1-2.652,1.986h-2.537a2.254,2.254,0,0,1-1.845-.7,2.3,2.3,0,0,1-.115-1.986Z" transform="translate(3827.646 -11.992)" fill="#f73746"/>
    <g id="Group_6" data-name="Group 6" transform="translate(4360 505)">
      <path id="Subtraction_1" data-name="Subtraction 1" d="M16.952,30.373A1.838,1.838,0,0,1,15.107,28.5V1.869a1.845,1.845,0,1,1,3.69,0V28.5A1.838,1.838,0,0,1,16.952,30.373ZM9.341,26.635A1.838,1.838,0,0,1,7.5,24.766V5.607a1.845,1.845,0,1,1,3.691,0V24.766A1.837,1.837,0,0,1,9.341,26.635ZM24.448,20.91A1.837,1.837,0,0,1,22.6,19.042V11.448a1.845,1.845,0,1,1,3.69,0v7.594A1.837,1.837,0,0,1,24.448,20.91Zm-22.6-1.986A1.837,1.837,0,0,1,0,17.056V13.2a1.845,1.845,0,1,1,3.69,0v3.855A1.837,1.837,0,0,1,1.845,18.925Z" transform="translate(10.148 10.164)" fill="#fff"/>
      <path id="Path_30" data-name="Path 30" d="M337.442,534.205a1.845,1.845,0,1,1-3.69,0v-7.594a1.845,1.845,0,1,1,3.69,0Zm-7.5,9.462a1.845,1.845,0,1,1-3.69,0V517.033a1.845,1.845,0,1,1,3.69,0Zm-7.611-3.738a1.845,1.845,0,1,1-3.691,0V520.771a1.845,1.845,0,1,1,3.691,0Zm-7.5-7.71a1.845,1.845,0,1,1-3.69,0v-3.855a1.845,1.845,0,1,1,3.69,0ZM325.679,505A24.864,24.864,0,0,0,301,528.364v1.519a24.947,24.947,0,0,0,12.916,21.962,24.282,24.282,0,0,0,11.647,2.92l24.564.117v-25A24.648,24.648,0,0,0,325.679,505Z" transform="translate(-301 -505)" fill="#f73746"/>
    </g>
  </g>
</svg>
